<svg width="98" height="30" viewBox="0 0 98 30" fill="none" xmlns="http://www.w3.org/2000/svg">
<path d="M12.5244 16.9386C12.0308 18.7807 12.693 19.9406 14.5175 20.4294L23.878 22.9376C25.7025 23.4264 26.856 22.7531 27.3496 20.911L30.9323 7.54005C31.4235 5.70674 30.766 4.52918 28.9415 4.0403L19.581 1.53218C17.7565 1.0433 16.5984 1.73434 16.1071 3.56765L12.5244 16.9386Z" fill="#6B66DA" fill-opacity="0.85"/>
<g clip-path="url(#clip0_1257_2)">
<path d="M5.29122 26.4323C5.78481 28.2744 6.93827 28.9478 8.76277 28.459L18.1232 25.9508C19.9477 25.4619 20.61 24.302 20.1164 22.4599L16.5337 9.08903C16.0425 7.25571 14.8842 6.56469 13.0597 7.05357L3.69926 9.56169C1.87476 10.0506 1.21726 11.2281 1.7085 13.0614L5.29122 26.4323Z" fill="#6B66DA" fill-opacity="0.85"/>
</g>
<path d="M39.411 21V9.1H44.562C45.6273 9.1 46.5453 9.27567 47.316 9.627C48.0867 9.967 48.6817 10.46 49.101 11.106C49.5203 11.752 49.73 12.5227 49.73 13.418C49.73 14.302 49.5203 15.067 49.101 15.713C48.6817 16.3477 48.0867 16.835 47.316 17.175C46.5453 17.515 45.6273 17.685 44.562 17.685H40.941L42.165 16.478V21H39.411ZM46.976 21L44.001 16.682H46.942L49.951 21H46.976ZM42.165 16.784L40.941 15.492H44.409C45.259 15.492 45.8937 15.3107 46.313 14.948C46.7323 14.574 46.942 14.064 46.942 13.418C46.942 12.7607 46.7323 12.2507 46.313 11.888C45.8937 11.5253 45.259 11.344 44.409 11.344H40.941L42.165 10.035V16.784ZM55.584 21.136C54.5413 21.136 53.6233 20.932 52.83 20.524C52.048 20.116 51.4416 19.5607 51.011 18.858C50.5803 18.144 50.365 17.3337 50.365 16.427C50.365 15.509 50.5746 14.6987 50.994 13.996C51.4246 13.282 52.0083 12.7267 52.745 12.33C53.4816 11.922 54.3146 11.718 55.244 11.718C56.1393 11.718 56.944 11.9107 57.658 12.296C58.3833 12.67 58.9556 13.214 59.375 13.928C59.7943 14.6307 60.004 15.475 60.004 16.461C60.004 16.563 59.9983 16.682 59.987 16.818C59.9756 16.9427 59.9643 17.0617 59.953 17.175H52.524V15.628H58.559L57.539 16.087C57.539 15.611 57.4426 15.1973 57.25 14.846C57.0573 14.4947 56.791 14.2227 56.451 14.03C56.111 13.826 55.7143 13.724 55.261 13.724C54.8076 13.724 54.4053 13.826 54.054 14.03C53.714 14.2227 53.4476 14.5003 53.255 14.863C53.0623 15.2143 52.966 15.6337 52.966 16.121V16.529C52.966 17.0277 53.0736 17.4697 53.289 17.855C53.5156 18.229 53.8273 18.518 54.224 18.722C54.632 18.9147 55.108 19.011 55.652 19.011C56.1393 19.011 56.5643 18.9373 56.927 18.79C57.301 18.6427 57.641 18.4217 57.947 18.127L59.358 19.657C58.9386 20.133 58.4116 20.5013 57.777 20.762C57.1423 21.0113 56.4113 21.136 55.584 21.136ZM65.5096 21.136C64.5236 21.136 63.6453 20.9377 62.8746 20.541C62.1039 20.133 61.4976 19.572 61.0556 18.858C60.6249 18.144 60.4096 17.3337 60.4096 16.427C60.4096 15.509 60.6249 14.6987 61.0556 13.996C61.4976 13.282 62.1039 12.7267 62.8746 12.33C63.6453 11.922 64.5236 11.718 65.5096 11.718C66.4729 11.718 67.3116 11.922 68.0256 12.33C68.7396 12.7267 69.2666 13.299 69.6066 14.047L67.5496 15.152C67.3116 14.7213 67.0113 14.404 66.6486 14.2C66.2973 13.996 65.9119 13.894 65.4926 13.894C65.0393 13.894 64.6313 13.996 64.2686 14.2C63.9059 14.404 63.6169 14.693 63.4016 15.067C63.1976 15.441 63.0956 15.8943 63.0956 16.427C63.0956 16.9597 63.1976 17.413 63.4016 17.787C63.6169 18.161 63.9059 18.45 64.2686 18.654C64.6313 18.858 65.0393 18.96 65.4926 18.96C65.9119 18.96 66.2973 18.8637 66.6486 18.671C67.0113 18.467 67.3116 18.144 67.5496 17.702L69.6066 18.824C69.2666 19.5607 68.7396 20.133 68.0256 20.541C67.3116 20.9377 66.4729 21.136 65.5096 21.136ZM76.0635 21V19.215L75.8935 18.824V15.628C75.8935 15.0613 75.7179 14.6193 75.3665 14.302C75.0265 13.9847 74.4995 13.826 73.7855 13.826C73.2982 13.826 72.8165 13.9053 72.3405 14.064C71.8759 14.2113 71.4792 14.4153 71.1505 14.676L70.1985 12.823C70.6972 12.4717 71.2979 12.1997 72.0005 12.007C72.7032 11.8143 73.4172 11.718 74.1425 11.718C75.5365 11.718 76.6189 12.0467 77.3895 12.704C78.1602 13.3613 78.5455 14.387 78.5455 15.781V21H76.0635ZM73.2755 21.136C72.5615 21.136 71.9495 21.017 71.4395 20.779C70.9295 20.5297 70.5385 20.1953 70.2665 19.776C69.9945 19.3567 69.8585 18.8863 69.8585 18.365C69.8585 17.821 69.9889 17.345 70.2495 16.937C70.5215 16.529 70.9465 16.2117 71.5245 15.985C72.1025 15.747 72.8562 15.628 73.7855 15.628H76.2165V17.175H74.0745C73.4512 17.175 73.0205 17.277 72.7825 17.481C72.5559 17.685 72.4425 17.94 72.4425 18.246C72.4425 18.586 72.5729 18.858 72.8335 19.062C73.1055 19.2547 73.4739 19.351 73.9385 19.351C74.3805 19.351 74.7772 19.249 75.1285 19.045C75.4799 18.8297 75.7349 18.518 75.8935 18.11L76.3015 19.334C76.1089 19.9233 75.7575 20.371 75.2475 20.677C74.7375 20.983 74.0802 21.136 73.2755 21.136ZM80.2657 21V11.854H82.7987V14.438L82.4417 13.69C82.7137 13.044 83.1501 12.5567 83.7507 12.228C84.3514 11.888 85.0824 11.718 85.9437 11.718V14.166C85.8304 14.1547 85.7284 14.149 85.6377 14.149C85.5471 14.1377 85.4507 14.132 85.3487 14.132C84.6234 14.132 84.0341 14.3417 83.5807 14.761C83.1387 15.169 82.9177 15.8093 82.9177 16.682V21H80.2657ZM90.7012 21.136C89.8399 21.136 89.0635 20.9433 88.3722 20.558C87.6809 20.1613 87.1312 19.6117 86.7232 18.909C86.3265 18.2063 86.1282 17.379 86.1282 16.427C86.1282 15.4637 86.3265 14.6307 86.7232 13.928C87.1312 13.2253 87.6809 12.6813 88.3722 12.296C89.0635 11.9107 89.8399 11.718 90.7012 11.718C91.4719 11.718 92.1462 11.888 92.7242 12.228C93.3022 12.568 93.7499 13.0837 94.0672 13.775C94.3845 14.4663 94.5432 15.3503 94.5432 16.427C94.5432 17.4923 94.3902 18.3763 94.0842 19.079C93.7782 19.7703 93.3362 20.286 92.7582 20.626C92.1915 20.966 91.5059 21.136 90.7012 21.136ZM91.1602 18.96C91.5909 18.96 91.9819 18.858 92.3332 18.654C92.6845 18.45 92.9622 18.161 93.1662 17.787C93.3815 17.4017 93.4892 16.9483 93.4892 16.427C93.4892 15.8943 93.3815 15.441 93.1662 15.067C92.9622 14.693 92.6845 14.404 92.3332 14.2C91.9819 13.996 91.5909 13.894 91.1602 13.894C90.7182 13.894 90.3215 13.996 89.9702 14.2C89.6189 14.404 89.3355 14.693 89.1202 15.067C88.9162 15.441 88.8142 15.8943 88.8142 16.427C88.8142 16.9483 88.9162 17.4017 89.1202 17.787C89.3355 18.161 89.6189 18.45 89.9702 18.654C90.3215 18.858 90.7182 18.96 91.1602 18.96ZM93.5572 21V19.13L93.6082 16.41L93.4382 13.707V8.386H96.0902V21H93.5572Z" fill="#111827"/>
<defs>
<clipPath id="clip0_1257_2">
<rect width="15.6858" height="19.573" fill="white" transform="translate(0.966919 10.2938) rotate(-15)"/>
</clipPath>
</defs>
</svg>
